# xmcd
#
# Track frame offsets: 
#        150
#        12394
#        26923
#        38601
#        50589
#        63269
#        74630
#        88457
#        97652
#        109718
#        121268
#        135635
#        150341
#        164367
#        175051
#        188341
#        201267
#        211910
#        225666
#        237304
#
# Disc length: 3364 seconds
#
# Revision: 0
# Processed by: cddbd v1.5.2PL0 Copyright (c) Steve Scherf et al.
# Submitted via: ExactAudioCopy v0.99pb4
#
DISCID=090d2214
DTITLE=Charles, Ray - Heart and Soul [2CD, CD2]
DYEAR=2006
DGENRE=Soul
TTITLE0=Mess around
TTITLE1=Kissa me baby
TTITLE2=Let's have a ball
TTITLE3=Roll with me baby
TTITLE4=Jumpin' in the morning
TTITLE5=I'll do anything but work
TTITLE6=Baby, let me hold your hand
TTITLE7=All to myself alone
TTITLE8=Can't you see darling?
TTITLE9=Confession blues
TTITLE10=Someday
TTITLE11=Funny (but still I love you)
TTITLE12=Misery in my heart
TTITLE13=I wonder who's kissing her now
TTITLE14=Baby, won't you please come home?
TTITLE15=The snow is falling
TTITLE16=Hey now
TTITLE17=The midnight hour
TTITLE18=Back home
TTITLE19=I'm wondering and wondering
EXTD=
EXTT0=
EXTT1=
EXTT2=
EXTT3=
EXTT4=
EXTT5=
EXTT6=
EXTT7=
EXTT8=
EXTT9=
EXTT10=
EXTT11=
EXTT12=
EXTT13=
EXTT14=
EXTT15=
EXTT16=
EXTT17=
EXTT18=
EXTT19=
PLAYORDER=
